<svg class="write-page" color-interpolation="linearRGB" width="768px" height="1024px" xmlns="http://www.w3.org/2000/svg" xmlns:xlink="http://www.w3.org/1999/xlink">
  <g class="write-content write-v3" xruling="0" yruling="40" marginLeft="100" papercolor="#FFFFFF" rulecolor="#FF0000FF">
    <g class="ruleline write-std-ruling write-scale-down" fill="none" stroke="#0000FF" stroke-width="1" shape-rendering="crispEdges" vector-effect="non-scaling-stroke">
      <rect class="pagerect" fill="#FFFFFF" stroke="none" x="0" y="0" width="768" height="1024" />
      <path class="yrule_1" d="M0 40 L768 40" />
      <path d="M0 80 L768 80" />
      <path d="M0 120 L768 120" />
      <path d="M0 160 L768 160" />
      <path d="M0 200 L768 200" />
      <path d="M0 240 L768 240" />
      <path d="M0 280 L768 280" />
      <path d="M0 320 L768 320" />
      <path d="M0 360 L768 360" />
      <path d="M0 400 L768 400" />
      <path d="M0 440 L768 440" />
      <path d="M0 480 L768 480" />
      <path d="M0 520 L768 520" />
      <path d="M0 560 L768 560" />
      <path d="M0 600 L768 600" />
      <path d="M0 640 L768 640" />
      <path d="M0 680 L768 680" />
      <path d="M0 720 L768 720" />
      <path d="M0 760 L768 760" />
      <path d="M0 800 L768 800" />
      <path d="M0 840 L768 840" />
      <path d="M0 880 L768 880" />
      <path d="M0 920 L768 920" />
      <path d="M0 960 L768 960" />
      <path d="M0 1000 L768 1000" />
      <path class="leftmargin" stroke="#FF0000" d="M100 0 L100 1024" />
    </g>
    <path class="write-stroke-pen" fill="none" stroke="#000000" stroke-width="1" stroke-linecap="round" stroke-linejoin="round" __comx="138.1" __comy="192.467" d="M124.4 204.4 L144.5 182.2 151.8 187.3" />
    <path class="write-stroke-pen" transform="translate(146.9,200)" fill="none" stroke="#000000" stroke-width="1" stroke-linecap="round" stroke-linejoin="round" __comx="285" __comy="392.467" d="M124.4 204.4 L144.5 182.2 151.8 187.3" />
    <path class="write-stroke-pen" transform="translate(146.9,200)" fill="none" stroke="#000000" stroke-width="1" stroke-linecap="round" stroke-linejoin="round" __comx="295" __comy="402.467" d="M134.4 214.4 L154.5 192.2 161.8 197.3" />
    <path class="write-stroke-pen" fill="none" stroke="#000000" stroke-width="1" stroke-linecap="round" stroke-linejoin="round" __comx="178.1" __comy="232.467" d="M164.4 244.4 L184.5 222.2 191.8 227.3" />
    <path class="write-stroke-pen" fill="none" stroke="#000000" stroke-width="1" stroke-linecap="round" stroke-linejoin="round" __comx="188.1" __comy="242.467" d="M174.4 254.4 L194.5 232.2 201.8 237.3" />
    <path class="write-stroke-pen" transform="translate(146.9,200)" fill="none" stroke="#000000" stroke-width="1" stroke-linecap="round" stroke-linejoin="round" __comx="285" __comy="392.467" d="M124.4 204.4 L144.5 182.2 151.8 187.3" />
    <path class="write-stroke-pen" transform="translate(146.9,200)" fill="none" stroke="#000000" stroke-width="1" stroke-linecap="round" stroke-linejoin="round" __comx="295" __comy="402.467" d="M134.4 214.4 L154.5 192.2 161.8 197.3" />
  </g>
</svg>
