<svg xmlns="http://www.w3.org/2000/svg" xmlns:mn="https://github.com/dzackgarza/math-notes-app/ns/1" xmlns:inkml="http://www.w3.org/2003/InkML" id="p-ujaqa3" width="210mm" height="297mm" viewBox="0 0 595.28 841.89">
  <metadata />
  <g id="background" mn:ruling="lined" mn:y-ruling="16.8" mn:y-offset="16.8" mn:x-ruling="0" mn:margin-left="48">
    <rect width="595.28" height="841.89" fill="#FFFFFF" />
    <path d="M0 16.8l595.28 0M0 33.6l595.28 0M0 50.4l595.28 0M0 67.2l595.28 0M0 84l595.28 0M0 100.8l595.28 0M0 117.6l595.28 0M0 134.4l595.28 0M0 151.2l595.28 0M0 168l595.28 0M0 184.8l595.28 0M0 201.6l595.28 0M0 218.4l595.28 0M0 235.2l595.28 0M0 252l595.28 0M0 268.8l595.28 0M0 285.6l595.28 0M0 302.4l595.28 0M0 319.2l595.28 0M0 336l595.28 0M0 352.8l595.28 0M0 369.6l595.28 0M0 386.4l595.28 0M0 403.2l595.28 0M0 420l595.28 0M0 436.8l595.28 0M0 453.6l595.28 0M0 470.4l595.28 0M0 487.2l595.28 0M0 504l595.28 0M0 520.8l595.28 0M0 537.6l595.28 0M0 554.4l595.28 0M0 571.2l595.28 0M0 588l595.28 0M0 604.8l595.28 0M0 621.6l595.28 0M0 638.4l595.28 0M0 655.2l595.28 0M0 672l595.28 0M0 688.8l595.28 0M0 705.6l595.28 0M0 722.4l595.28 0M0 739.2l595.28 0M0 756l595.28 0M0 772.8l595.28 0M0 789.6l595.28 0M0 806.4l595.28 0M0 823.2l595.28 0M0 840l595.28 0" fill="none" stroke="#6060FF" stroke-width="0.48" />
    <path d="M48 0l0 841.89" fill="none" stroke="#FF6060" stroke-width="0.48" />
  </g>
  <g id="l-io2oyj" />
</svg>
