<svg xmlns="http://www.w3.org/2000/svg" xmlns:mn="https://github.com/dzackgarza/math-notes-app/ns/1" xmlns:inkml="http://www.w3.org/2003/InkML" id="p-lined1" width="210mm" height="297mm" viewBox="0 0 595.28 841.89">
  <metadata>
    <inkml:traceFormat xml:id="xytf">
      <inkml:channel name="X" type="decimal" units="pt" />
      <inkml:channel name="Y" type="decimal" units="pt" />
      <inkml:channel name="T" type="integer" units="ms" />
      <inkml:channel name="F" type="decimal" />
    </inkml:traceFormat>
  </metadata>
  <g id="background" mn:ruling="lined" mn:y-ruling="19.2" mn:y-offset="57.6" mn:x-ruling="0" mn:margin-left="48">
    <rect width="595.28" height="841.89" fill="#FFFFFF" />
    <path d="M0 57.6l595.28 0" fill="none" stroke="#9F9FFF" stroke-width="0.5" />
    <path d="M0 76.8l595.28 0" fill="none" stroke="#9F9FFF" stroke-width="0.5" />
    <path d="M48 0l0 841.89" fill="none" stroke="#FF9F9F" stroke-width="0.5" />
  </g>
  <g id="l-inkaaa">
    <path id="s-abcdefghijkl" fill="#1A1A1A" mn:brush="pressure-pen" mn:brush-version="1" mn:size="1.6" mn:time="2026-09-25T17:43:21.123Z" d="M100 50l10 1.5 10 -1.5 -10 -1.5Z">
      <metadata>
        <inkml:trace contextRef="#xytf">100 50 0 0.5,105 50.75 8 0.61,110 51.5 17 0.7,120 50 25 0.55</inkml:trace>
      </metadata>
    </path>
    <path id="s-transl8ted22" transform="translate(12.5,-4)" fill="#003399" fill-opacity="0.4" mn:brush="highlighter" mn:brush-version="1" mn:size="8" mn:time="2026-09-25T17:44:00.000Z" d="M200 100l50 0 0 8 -50 0Z">
      <metadata>
        <inkml:trace contextRef="#xytf">200 104 0 1,250 104 120 1</inkml:trace>
      </metadata>
    </path>
    <line id="s-shapeline001" class="mn-shape" fill="none" stroke="#1A1A1A" stroke-width="1.2" x1="60" y1="300" x2="200.5" y2="310" />
    <rect id="s-shaperect002" class="mn-shape" fill="none" stroke="#CC0000" stroke-width="1" x="300" y="300" width="80" height="40.25" />
    <image id="s-pastedimage" href="../assets/diagram.png" x="60" y="400" width="120" height="90" />
  </g>
  <g id="l-notesb">
    <path id="s-rotatedpen01" transform="matrix(0.87,0.5,-0.5,0.87,30,40)" fill="#000000" mn:brush="marker" mn:brush-version="1" mn:size="2" mn:time="2026-09-25T17:45:00.000Z" d="M0 0l10 0 0 2 -10 0Z" />
  </g>
</svg>
